<?xml version="1.0" standalone="no"?>
<!DOCTYPE svg PUBLIC "-//W3C//DTD SVG 20010904//EN"
 "http://www.w3.org/TR/2001/REC-SVG-20010904/DTD/svg10.dtd">
<svg version="1.0" xmlns="http://www.w3.org/2000/svg"
 width="225.000000pt" height="225.000000pt" viewBox="0 0 225.000000 225.000000"
 preserveAspectRatio="xMidYMid meet">
<metadata>
Created by potrace 1.11, written by Peter Selinger 2001-2013
</metadata>
<g transform="translate(0.000000,225.000000) scale(0.100000,-0.100000)"
fill="#000000" stroke="none">
<path d="M710 1834 c-223 -80 -409 -149 -414 -154 -4 -5 20 -250 55 -558 l63
-549 350 -194 c192 -107 353 -195 356 -197 5 -2 709 382 716 391 5 6 127 1107
124 1110 -8 6 -830 297 -838 296 -4 0 -189 -66 -412 -145z m673 -634 c135
-305 249 -563 252 -573 7 -15 -2 -17 -88 -17 l-95 0 -52 130 -52 130 -223 0
-223 0 -52 -130 -52 -130 -95 0 c-86 0 -95 2 -90 17 2 10 112 257 242 548 131
292 244 545 252 564 8 18 18 30 22 25 4 -5 118 -259 254 -564z"/>
<path d="M1113 1374 c-4 -10 -37 -91 -73 -179 l-67 -160 73 -3 c40 -2 109 -2
153 0 l79 3 -72 172 c-39 94 -75 175 -78 179 -4 4 -11 -2 -15 -12z"/>
</g>
</svg>
